<svg xmlns="http://www.w3.org/2000/svg" height="800" width="1200" viewBox="-23.86038 -9.976725 206.78996 59.86035"><path d="M34.0776 39.907h-23.783V28.682h3.2248v8.248h20.5892c5.3023 0 6.8527-1.2712 6.8527-5.7054 0-4.4648-1.4884-5.6744-6.8527-5.6744H0v-2.9767h34.0776c5.7364 0 9.5813 1.4884 9.5813 8.6511 0 5.2404-1.6434 8.6822-9.5814 8.6822M43.659 8.6512c0 7.1938-3.845 8.6511-9.5815 8.6511H0v-2.9767h34.1085c5.3644 0 6.8527-1.2403 6.8527-5.6744 0-4.4031-1.5503-5.6745-6.8527-5.6745H13.5194v8.2481h-3.2248V0h23.783c7.9379 0 9.5813 3.4729 9.5813 8.6512m32.3476 15.5563c0 3.9785-2.3184 5.2093-6.44 5.2093h-7.213V10.583h6.8695c3.9212 0 6.1252 1.2022 6.1252 5.009 0 2.2612-.7728 3.4347-2.2326 4.0071 1.8891.6011 2.8909 1.975 2.8909 4.6083zm-6.755 2.6905c2.6906 0 3.5207-.7156 3.5207-2.9195 0-2.204-.8301-3.0626-3.5206-3.0626h-3.7782v5.982zm2.9196-11.1056c0-2.1467-.7728-2.7477-3.263-2.7477h-3.4347v5.381h3.406c2.5189.0286 3.2917-.4866 3.2917-2.6333zm15.1987 13.5958V22.805l-6.0682-12.2505h3.349l4.2648 9.0161 4.2645-9.016h3.3775L90.4897 22.805v6.5832zm23.4988-16.229v16.229h-3.1196v-16.229h-5.152v-2.6046h13.4526v2.6046zm26.6191 6.8122c0 6.1824-1.4312 9.7316-7.814 9.7316s-7.814-3.5492-7.814-9.7316c0-6.1825 1.4312-9.7317 7.814-9.7317 6.3828-.0286 7.814 3.5206 7.814 9.7317m-12.3936 0c0 5.009.8303 6.9839 4.5796 6.9839 3.7498 0 4.5796-1.9464 4.5796-6.984 0-5.0375-.8298-6.9838-4.5796-6.9838-3.7493 0-4.5796 1.9463-4.5796 6.9839m23.6709-9.4168h-3.8926v18.8336h3.0054V15.0483l7.1556 14.34h4.0358V10.5545h-3.0054v14.6261z" fill="#7A7977" fill-rule="evenodd"/></svg>